<svg width="512" height="512" viewBox="0 0 512 512" fill="none" xmlns="http://www.w3.org/2000/svg">
  <rect width="512" height="512" fill="#09090B"/>
  <circle cx="256" cy="256" r="140" fill="url(#glow)" opacity="0.3"/>
  
  <path d="M192 160C192 151.163 199.163 144 208 144C216.837 144 224 151.163 224 160V232H288V160C288 151.163 295.163 144 304 144C312.837 144 320 151.163 320 160V352C320 360.837 312.837 368 304 368C295.163 368 288 360.837 288 352V280H224V352C224 360.837 216.837 368 208 368C199.163 368 192 360.837 192 352V160Z" fill="url(#primaryGradient)"/>
  
  <defs>
    <radialGradient id="glow" cx="0" cy="0" r="1" gradientUnits="userSpaceOnUse" gradientTransform="translate(256 256) rotate(90) scale(140)">
      <stop stop-color="#8B5CF6"/>
      <stop offset="1" stop-color="#09090B" stop-opacity="0"/>
    </radialGradient>
    <linearGradient id="primaryGradient" x1="192" y1="144" x2="320" y2="368" gradientUnits="userSpaceOnUse">
      <stop stop-color="#A78BFA"/>
      <stop offset="1" stop-color="#7C3AED"/>
    </linearGradient>
  </defs>
</svg>
